<?xml version="1.0" standalone="no"?>
<!DOCTYPE svg PUBLIC "-//W3C//DTD SVG 20010904//EN"
 "http://www.w3.org/TR/2001/REC-SVG-20010904/DTD/svg10.dtd">
<svg version="1.0" xmlns="http://www.w3.org/2000/svg"
 width="260.000000pt" height="260.000000pt" viewBox="0 0 260.000000 260.000000"
 preserveAspectRatio="xMidYMid meet">
<metadata>
Created by potrace 1.11, written by Peter Selinger 2001-2013
</metadata>
<g transform="translate(0.000000,260.000000) scale(0.100000,-0.100000)"
fill="#000000" stroke="none">
<path d="M1169 2596 c-2 -2 -24 -6 -49 -10 -93 -12 -117 -18 -210 -47 -447
-143 -779 -506 -880 -964 -20 -86 -25 -145 -25 -275 0 -139 9 -220 32 -310 3
-14 7 -29 8 -35 2 -5 13 -39 25 -75 148 -436 516 -759 980 -857 131 -27 383
-25 518 5 153 34 302 94 420 169 313 199 528 518 592 878 17 97 21 335 6 422
-46 274 -168 517 -359 711 -77 79 -90 90 -182 157 -149 106 -351 188 -550 222
-38 6 -320 14 -326 9z"/>
</g>
</svg>
